<?xml version="1.0" encoding="UTF-8" standalone="no"?>
<svg
   xmlns:dc="http://purl.org/dc/elements/1.1/"
   xmlns:cc="http://creativecommons.org/ns#"
   xmlns:rdf="http://www.w3.org/1999/02/22-rdf-syntax-ns#"
   xmlns:svg="http://www.w3.org/2000/svg"
   xmlns="http://www.w3.org/2000/svg"
   xmlns:sodipodi="http://sodipodi.sourceforge.net/DTD/sodipodi-0.dtd"
   xmlns:inkscape="http://www.inkscape.org/namespaces/inkscape"
   version="1.1"
   id="Layer_2"
   x="0px"
   y="0px"
   width="1500"
   height="500"
   viewBox="0 0 1500 500"
   enable-background="new 0 0 600 600"
   xml:space="preserve"
   inkscape:version="0.91 r13725"
   sodipodi:docname="react.svg"><metadata
     id="metadata17"><rdf:RDF><cc:Work
         rdf:about=""><dc:format>image/svg+xml</dc:format><dc:type
           rdf:resource="http://purl.org/dc/dcmitype/StillImage" /><dc:title></dc:title></cc:Work></rdf:RDF></metadata><defs
     id="defs15" /><sodipodi:namedview
     pagecolor="#ffffff"
     bordercolor="#666666"
     borderopacity="1"
     objecttolerance="10"
     gridtolerance="10"
     guidetolerance="10"
     inkscape:pageopacity="0"
     inkscape:pageshadow="2"
     inkscape:window-width="1097"
     inkscape:window-height="925"
     id="namedview13"
     showgrid="false"
     fit-margin-top="0"
     fit-margin-left="0"
     fit-margin-right="0"
     fit-margin-bottom="0"
     inkscape:zoom="0.39333333"
     inkscape:cx="512.66271"
     inkscape:cy="460.56003"
     inkscape:window-x="0"
     inkscape:window-y="0"
     inkscape:window-maximized="0"
     inkscape:current-layer="Layer_2" /><text
     xml:space="preserve"
     style="font-style:normal;font-weight:normal;font-size:354.43917847px;line-height:125%;font-family:sans-serif;letter-spacing:0px;word-spacing:0px;fill:#00d8ff;fill-opacity:1;stroke:none;stroke-width:8;stroke-linecap:butt;stroke-linejoin:miter;stroke-miterlimit:4;stroke-dasharray:none;stroke-opacity:1"
     x="627.33246"
     y="363.72339"
     id="text4145"
     sodipodi:linespacing="125%"><tspan
       sodipodi:role="line"
       id="tspan4147"
       x="627.33246"
       y="363.72339"
       dx="0"
       style="font-style:normal;font-variant:normal;font-weight:normal;font-stretch:normal;font-family:'Proxima Nova';-inkscape-font-specification:'Proxima Nova';letter-spacing:0px;fill:#00d8ff;fill-opacity:1;stroke:none;stroke-width:8;stroke-miterlimit:4;stroke-dasharray:none;stroke-opacity:1">React</tspan></text>
<circle
     cx="282.72748"
     cy="249.5369"
     r="50.167"
     id="circle5"
     style="fill:#00d8ff" /><path
     stroke-miterlimit="10"
     d="m 282.72748,147.53691 c 67.356,0 129.928,9.665 177.107,25.907 56.844,19.569 91.794,49.233 91.794,76.093 0,27.991 -37.041,59.503 -98.083,79.728 -46.151,15.291 -106.879,23.272 -170.818,23.272 -65.554,0 -127.63,-7.492 -174.29,-23.441 -59.045999,-20.182 -94.610999,-52.103 -94.610999,-79.559 0,-26.642 33.37,-56.076 89.414999,-75.616 47.355,-16.509 111.472,-26.384 179.486,-26.384 z"
     id="path7"
     inkscape:connector-curvature="0"
     style="fill:none;stroke:#00d8ff;stroke-width:24;stroke-miterlimit:10" /><path
     stroke-miterlimit="10"
     d="m 193.93448,198.83091 c 33.649,-58.348 73.281,-107.724 110.92,-140.48 45.35,-39.466 88.507,-54.9230003 111.775,-41.505 24.248,13.983 33.042,61.814 20.067,124.796 -9.81,47.618 -33.234,104.212 -65.176,159.601 -32.749,56.788 -70.25,106.819 -107.377,139.272 -46.981,41.068 -92.4,55.929 -116.185,42.213 -23.079,-13.31 -31.906,-56.921 -20.834,-115.233 9.355,-49.27 32.832,-109.745 66.81,-168.664 z"
     id="path9"
     inkscape:connector-curvature="0"
     style="fill:none;stroke:#00d8ff;stroke-width:24;stroke-miterlimit:10" /><path
     stroke-miterlimit="10"
     d="m 194.01948,301.39091 c -33.746,-58.292 -56.731,-117.287 -66.312,-166.255 -11.544,-58.999 -3.382,-104.109 19.864,-117.566 24.224,-14.0240003 70.055,2.244 118.14,44.94 36.356,32.28 73.688,80.837 105.723,136.173 32.844,56.733 57.461,114.209 67.036,162.582 12.117,61.213 2.309,107.984 -21.453,121.74 -23.057,13.348 -65.249,-0.784 -110.239,-39.499 -38.013,-32.711 -78.682,-83.253 -112.759,-142.115 z"
     id="path11"
     inkscape:connector-curvature="0"
     style="fill:none;stroke:#00d8ff;stroke-width:24;stroke-miterlimit:10" /></svg>