<?xml version="1.0" encoding="UTF-8" standalone="no"?>
<svg
   xmlns:dc="http://purl.org/dc/elements/1.1/"
   xmlns:cc="http://creativecommons.org/ns#"
   xmlns:rdf="http://www.w3.org/1999/02/22-rdf-syntax-ns#"
   xmlns:svg="http://www.w3.org/2000/svg"
   xmlns="http://www.w3.org/2000/svg"
   xmlns:sodipodi="http://sodipodi.sourceforge.net/DTD/sodipodi-0.dtd"
   xmlns:inkscape="http://www.inkscape.org/namespaces/inkscape"
   width="500"
   height="500"
   viewBox="0 0 500 500"
   id="svg2"
   version="1.1"
   inkscape:version="0.91 r13725"
   sodipodi:docname="eur.svg">
  <metadata
     id="metadata10">
    <rdf:RDF>
      <cc:Work
         rdf:about="">
        <dc:format>image/svg+xml</dc:format>
        <dc:type
           rdf:resource="http://purl.org/dc/dcmitype/StillImage" />
        <dc:title />
      </cc:Work>
    </rdf:RDF>
  </metadata>
  <defs
     id="defs8" />
  <sodipodi:namedview
     pagecolor="#ffffff"
     bordercolor="#666666"
     borderopacity="1"
     objecttolerance="10"
     gridtolerance="10"
     guidetolerance="10"
     inkscape:pageopacity="0"
     inkscape:pageshadow="2"
     inkscape:window-width="1109"
     inkscape:window-height="880"
     id="namedview6"
     showgrid="false"
     inkscape:zoom="0.78666667"
     inkscape:cx="-90.254236"
     inkscape:cy="150"
     inkscape:window-x="0"
     inkscape:window-y="0"
     inkscape:window-maximized="0"
     inkscape:current-layer="svg2" />
  <rect
     style="fill:#003399;fill-opacity:1;fill-rule:evenodd;stroke:none;stroke-width:4;stroke-miterlimit:4;stroke-dasharray:none;stroke-opacity:1"
     id="rect4138"
     width="500"
     height="500"
     x="0"
     y="-5.6843419e-14" />
  <path
     d="m 352.49998,116.22698 -8.11342,36.41161 q -24.14255,-19.78892 -54.61741,-19.78892 -41.3588,0 -65.00658,23.74671 -23.64777,23.7467 -28.39712,53.23215 l 134.96036,0 -5.14505,26.71508 -132.98153,0 -0.39585,7.71771 0.39585,18.20566 127.24264,0 -5.14505,26.71508 -117.94195,0 q 7.51971,40.17154 32.55275,59.06997 25.03303,18.89844 56.49745,18.89844 37.20302,0 57.98149,-19.59107 l 0,40.9631 Q 319.8483,400 289.76915,400 180.53432,400 157.97488,289.18206 l -30.47486,0 5.73875,-26.71508 20.58048,0 q -0.39571,-4.74934 -0.39571,-17.80995 l 0,-8.11342 -25.92352,0 5.73875,-26.71508 23.153,0 q 10.29024,-54.61741 47.6914,-82.22297 Q 241.48419,100 290.56071,100 q 36.80731,0 61.93927,16.22698 z"
     id="path4"
     inkscape:connector-curvature="0"
     style="fill:#ffffff;fill-opacity:1;stroke:none" />
</svg>
